# xmcd CD database file
#
# Track frame offsets:
#	150
#	24790
#	47070
#	67400
#	96982
#	123634
#	147152
#	167795
#	191951
#	216759
#	247071
#
# Disc length: 3461 seconds
#
# Revision: 1
# Processed by: cddbd v1.5.1PL0 Copyright (c) Steve Scherf et al.
# Submitted via: CDex 1.51
#
DISCID=ac0d830b
DTITLE=Amar Sundy - Najma
DYEAR=2004
DGENRE=Blues
TTITLE0=I know
TTITLE1=Men in trouble
TTITLE2=Rahala
TTITLE3=This morning
TTITLE4=Najma
TTITLE5=One more time
TTITLE6=Say hey (dedicated to Albert Collins)
TTITLE7=Ouallache
TTITLE8=Men'na
TTITLE9=If my baby
TTITLE10=Now I know
EXTD=YEAR: 2004
EXTT0=
EXTT1=
EXTT2=
EXTT3=
EXTT4=
EXTT5=
EXTT6=
EXTT7=
EXTT8=
EXTT9=
EXTT10=
PLAYORDER=
